<?xml version="1.0" encoding="UTF-8"?>
<svg version="1.1" xmlns="http://www.w3.org/2000/svg" width="640" height="155">
<path d="M0 0 C211.2 0 422.4 0 640 0 C640 51.15 640 102.3 640 155 C428.8 155 217.6 155 0 155 C0 103.85 0 52.7 0 0 Z " fill="#FDFDFD" transform="translate(0,0)"/>
<path d="M0 0 C4.516875 -0.1546875 4.516875 -0.1546875 9.125 -0.3125 C10.06230957 -0.35802002 10.99961914 -0.40354004 11.96533203 -0.45043945 C16.16396097 -0.51974589 19.15065421 -0.38959739 22.55078125 2.234375 C25.6102606 5.68909809 25.94870247 7.48310874 26.19140625 11.91796875 C25.93952299 14.65784172 24.8377051 16.0091528 23 18 C23.33 18.99 23.66 19.98 24 21 C24.66 21.33 25.32 21.66 26 22 C26 26.62 26 31.24 26 36 C24.68 36 23.36 36 22 36 C21.90912109 34.71802734 21.90912109 34.71802734 21.81640625 33.41015625 C21.69072266 31.75306641 21.69072266 31.75306641 21.5625 30.0625 C21.48128906 28.96035156 21.40007813 27.85820313 21.31640625 26.72265625 C21.29581916 24.08890097 21.29581916 24.08890097 20 23 C17.47206606 22.76328017 14.97065034 22.5785675 12.4375 22.4375 C9.983125 22.293125 7.52875 22.14875 5 22 C5 26.95 5 31.9 5 37 C3.35 37 1.7 37 0 37 C0 24.79 0 12.58 0 0 Z " fill="#565656" transform="translate(38,53)"/>
<path d="M0 0 C1.65 0 3.3 0 5 0 C5 12.21 5 24.42 5 37 C-11 38 -11 38 -16 34 C-18.11587069 28.8614569 -18.82039234 23.50263153 -18 18 C-16.36368153 14.785803 -15.02691088 12.75306798 -12.125 10.625 C-7.33708493 9.21678969 -4.44320304 9.77839848 0 12 C0 8.04 0 4.08 0 0 Z " fill="#111111" transform="translate(144,53)"/>
<path d="M0 0 C1.65 0 3.3 0 5 0 C5 12.21 5 24.42 5 37 C3.68 37 2.36 37 1 37 C1 36.01 1 35.02 1 34 C0.29875 34.495 -0.4025 34.99 -1.125 35.5 C-4.58135377 37.30331501 -6.15471598 37.69215112 -10 37 C-13.23310506 34.9486048 -16.37475076 32.77513289 -17.6796875 29.0703125 C-18.51709519 23.65779941 -18.79950586 19.46576074 -16.125 14.5625 C-12.37222671 10.03709692 -12.37222671 10.03709692 -9.6875 9.76953125 C-8.3571875 9.79080078 -8.3571875 9.79080078 -7 9.8125 C-5.6696875 9.82216797 -5.6696875 9.82216797 -4.3125 9.83203125 C-2 10 -2 10 0 11 C0 7.37 0 3.74 0 0 Z " fill="#0F0F0F" transform="translate(597,53)"/>
<path d="M0 0 C3.22237665 1.40131409 5.16845608 2.98766129 7 6 C8.04177467 11.91504275 8.48922285 18.59626632 5.0625 23.8125 C2.05932439 26.99768626 2.05932439 26.99768626 -0.50390625 27.09765625 C-1.51324219 27.08605469 -2.52257812 27.07445313 -3.5625 27.0625 C-4.57441406 27.05347656 -5.58632813 27.04445313 -6.62890625 27.03515625 C-7.80259766 27.01775391 -7.80259766 27.01775391 -9 27 C-9 26.34 -9 25.68 -9 25 C-9.66 25 -10.32 25 -11 25 C-11 29.62 -11 34.24 -11 39 C-12.32 39 -13.64 39 -15 39 C-15 26.46 -15 13.92 -15 1 C-12.69 1 -10.38 1 -8 1 C-5.04206277 -0.47896861 -3.29779776 -0.4355582 0 0 Z " fill="#3C3C3C" transform="translate(510,62)"/>
<path d="M0 0 C4.24965874 1.57571616 7.83546412 3.92557953 10 8 C10 9.32 10 10.64 10 12 C8.68 12 7.36 12 6 12 C4.4375 9.625 4.4375 9.625 3 7 C-1.24248554 4.1716763 -5.01997795 4.35398729 -10 5 C-13.23982478 7.02489049 -13.8600149 8.643038 -15.25 12.1875 C-16.43652515 18.21900286 -17.11780868 22.88001802 -14.1875 28.4375 C-11.21445206 31.9202133 -9.72222349 32.91845864 -5.125 33.4375 C-1.49788123 33.37749252 -1.0720829 33.06268078 1.875 30.5 C2.57625 29.675 3.2775 28.85 4 28 C4.66 28 5.32 28 6 28 C6 26.02 6 24.04 6 22 C2.37 22 -1.26 22 -5 22 C-5 20.68 -5 19.36 -5 18 C-0.05 18 4.9 18 10 18 C10 24.27 10 30.54 10 37 C9.01 37 8.02 37 7 37 C7 36.01 7 35.02 7 34 C5.865625 34.639375 4.73125 35.27875 3.5625 35.9375 C2.92441406 36.29714844 2.28632813 36.65679687 1.62890625 37.02734375 C0.02121854 37.8972513 0.02121854 37.8972513 -1 39 C-7.35411864 39.79426483 -10.94161117 38.57581719 -16.078125 34.75 C-20.05005772 31.13328077 -20.8222536 28.03764353 -21.26953125 22.91015625 C-21.49504304 15.61860842 -21.53824309 9.80127795 -16.37109375 4.25 C-11.27757969 -0.19524864 -6.62551552 -1.27330754 0 0 Z " fill="#424242" transform="translate(352,52)"/>
<path d="M0 0 C3.48472998 1.01454164 6.0172186 2.74876772 8.16015625 5.62890625 C8.96403495 8.699614 8.95556333 11.65556865 8.91015625 14.81640625 C8.51692932 20.7460425 8.51692932 20.7460425 11.16015625 25.62890625 C11.16015625 26.61890625 11.16015625 27.60890625 11.16015625 28.62890625 C9.18015625 28.62890625 7.20015625 28.62890625 5.16015625 28.62890625 C5.16015625 27.30890625 5.16015625 25.98890625 5.16015625 24.62890625 C4.33515625 25.28890625 3.51015625 25.94890625 2.66015625 26.62890625 C-1.25095767 29.24870227 -4.21483515 29.08382513 -8.83984375 28.62890625 C-11.83984375 26.62890625 -11.83984375 26.62890625 -12.90234375 22.81640625 C-13.20381993 19.19869208 -12.99036845 18.81197683 -10.52734375 15.81640625 C-6.4288434 12.94842492 -1.64565562 11.79711744 3.16015625 10.62890625 C3.16015625 9.30890625 3.16015625 7.98890625 3.16015625 6.62890625 C0.20351106 5.15058365 -2.58214112 5.56857842 -5.83984375 5.62890625 C-6.49984375 6.94890625 -7.15984375 8.26890625 -7.83984375 9.62890625 C-9.15984375 9.62890625 -10.47984375 9.62890625 -11.83984375 9.62890625 C-11.56237883 6.29932718 -11.02888271 4.84085902 -8.77734375 2.31640625 C-5.7487274 0.57656281 -3.48216189 0.12155391 0 0 Z " fill="#474747" transform="translate(111.83984375,61.37109375)"/>
<path d="M0 0 C2.62512054 1.54418855 3.75258625 2.5051725 5.125 5.25 C5.125 7.89 5.125 10.53 5.125 13.25 C-1.145 13.25 -7.415 13.25 -13.875 13.25 C-12.20873428 18.08872012 -12.20873428 18.08872012 -8.875 21.25 C-5.4062693 21.69281668 -3.60480175 21.75043548 -0.6875 19.75 C-0.089375 19.255 0.50875 18.76 1.125 18.25 C2.115 18.25 3.105 18.25 4.125 18.25 C3.21626425 21.30665662 2.44969175 22.97305703 0 25.0625 C-4.44003632 26.89642805 -8.41516581 26.86495855 -13.125 25.6875 C-16.60176018 22.83158985 -18.53716052 19.38841256 -19.23046875 15 C-19.43936048 9.11124277 -18.17613795 4.90515918 -14.25 0.375 C-9.69984344 -1.78033732 -4.77693339 -1.24615654 0 0 Z " fill="#3F3F3F" transform="translate(224.875,63.75)"/>
<path d="M0 0 C3.49700467 0.50276425 5.15217016 1.70011667 7.4453125 4.3515625 C9.46469648 8.10184703 9.4453125 9.88681832 9.4453125 14.3515625 C3.1753125 14.3515625 -3.0946875 14.3515625 -9.5546875 14.3515625 C-8.02155983 18.66765046 -8.02155983 18.66765046 -5.5546875 22.3515625 C-2.13868157 22.76849103 -2.13868157 22.76849103 1.4453125 22.3515625 C3.15063573 20.41146728 3.15063573 20.41146728 4.4453125 18.3515625 C5.7653125 18.3515625 7.0853125 18.3515625 8.4453125 18.3515625 C8.1153125 20.6615625 7.7853125 22.9715625 7.4453125 25.3515625 C2.767943 27.84615957 -2.40528026 28.59367191 -7.5546875 27.3515625 C-11.99659753 23.50725884 -14.31762866 18.8643862 -14.8671875 13.0390625 C-14.44309399 8.0347591 -12.30144351 5.50811465 -9.22265625 1.70703125 C-6.39094246 -0.59415068 -3.51021617 -0.11257253 0 0 Z " fill="#393939" transform="translate(565.5546875,62.6484375)"/>
<path d="M0 0 C3.06039984 1.29928444 3.80272687 2.2393235 6 5 C6.33 7.97 6.66 10.94 7 14 C0.73 14 -5.54 14 -12 14 C-10.01445596 20.82930139 -10.01445596 20.82930139 -6.95703125 21.90234375 C-3.97851562 21.95117188 -3.97851562 21.95117188 -1 22 C-0.5875 21.34 -0.175 20.68 0.25 20 C1.11625 19.01 1.11625 19.01 2 18 C3.32 18 4.64 18 6 18 C5.67 20.31 5.34 22.62 5 25 C0.66470456 27.16764772 -3.24385121 27.61743108 -8 27 C-12.25595829 25.20303983 -13.93569769 23.06517633 -16 19 C-16.85589891 14.13000156 -16.96668781 9.26697769 -15.00390625 4.6640625 C-11.10219005 -0.7519175 -6.31071022 -1.42169971 0 0 Z " fill="#2F2F2F" transform="translate(386,63)"/>
<path d="M0 0 C4.23160079 0.03632275 6.90742162 0.44654716 10.25 3.25 C11.35982356 5.46964712 11.42829168 6.81483257 11.53125 9.27734375 C11.56863281 10.06947266 11.60601562 10.86160156 11.64453125 11.67773438 C11.69673828 12.92006836 11.69673828 12.92006836 11.75 14.1875 C11.81900029 15.82178464 11.89176558 17.45591575 11.96875 19.08984375 C11.99904297 19.81550537 12.02933594 20.54116699 12.06054688 21.28881836 C12.19683305 23.46307065 12.19683305 23.46307065 13.25 26.25 C10.91666667 26.25 8.58333333 26.25 6.25 26.25 C5.445625 26.4975 5.445625 26.4975 4.625 26.75 C1.07461869 27.4974487 -2.11539811 27.42307628 -5.75 27.25 C-8.75 25.25 -8.75 25.25 -9.8125 21.4375 C-10.11397618 17.81978583 -9.9005247 17.43307058 -7.4375 14.4375 C-3.33899965 11.56951867 1.44418813 10.41821119 6.25 9.25 C6.25 7.93 6.25 6.61 6.25 5.25 C3.46136993 3.85568496 1.32921132 3.99339906 -1.75 4.25 C-2.74 5.735 -2.74 5.735 -3.75 7.25 C-5.07 7.25 -6.39 7.25 -7.75 7.25 C-5.46714358 0.09704989 -5.46714358 0.09704989 0 0 Z " fill="#3A3A3A" transform="translate(243.75,62.75)"/>
<path d="M0 0 C3.27981751 2.06771104 4.84746007 3.77119011 7 7 C7 9.31 7 11.62 7 14 C0.73 14 -5.54 14 -12 14 C-9.71183213 20.53576165 -9.71183213 20.53576165 -7 23 C-5.07864971 23.13699478 -5.07864971 23.13699478 -3 22.8125 C-2.29875 22.73644531 -1.5975 22.66039063 -0.875 22.58203125 C1.3924071 22.09410365 1.3924071 22.09410365 3 19 C3.66 19 4.32 19 5 19 C4.6406828 21.5152204 3.93759565 23.09767638 2.5625 25.25 C-0.85321396 27.58268271 -3.43044868 27.79907634 -7.51953125 27.66015625 C-11.38730679 26.63077977 -12.84218286 24.3077666 -14.94140625 21.04296875 C-17.15464143 16.77166985 -17.49955812 12.72729995 -17 8 C-15.61265239 4.53163098 -14.41002674 3.27652966 -11.3125 1.1875 C-7.05230313 -0.33974039 -4.51968124 -0.5021868 0 0 Z " fill="#3A3A3A" transform="translate(88,63)"/>
<path d="M0 0 C1.32 0 2.64 0 4 0 C4 0.99 4 1.98 4 3 C4.474375 2.505 4.94875 2.01 5.4375 1.5 C9.11167123 -0.65073438 12.85971977 -1.06125227 17 0 C19.765625 1.82421875 19.765625 1.82421875 22 5 C22.60515179 8.79108698 22.47163166 12.48599557 22.3125 16.3125 C22.28994141 17.33923828 22.26738281 18.36597656 22.24414062 19.42382812 C22.18537575 21.9507179 22.10327849 24.47460255 22 27 C20.34385343 27.38218767 18.67542976 27.71395102 17 28 C16 27 16 27 15.88647461 24.77514648 C15.89171143 23.81680908 15.89694824 22.85847168 15.90234375 21.87109375 C15.90556641 20.83662109 15.90878906 19.80214844 15.91210938 18.73632812 C15.92048828 17.64771484 15.92886719 16.55910156 15.9375 15.4375 C15.94201172 14.34501953 15.94652344 13.25253906 15.95117188 12.12695312 C15.96300174 9.41791505 15.97948457 6.70898401 16 4 C14.02 4 12.04 4 10 4 C9.690625 4.639375 9.38125 5.27875 9.0625 5.9375 C8 8 8 8 7 9 C6.84417697 10.34015221 6.74955858 11.68758903 6.68359375 13.03515625 C6.64169922 13.84404297 6.59980469 14.65292969 6.55664062 15.48632812 C6.51732422 16.33646484 6.47800781 17.18660156 6.4375 18.0625 C6.39431641 18.91650391 6.35113281 19.77050781 6.30664062 20.65039062 C6.20023298 22.76672037 6.09958269 24.88333813 6 27 C4.33388095 27.042721 2.66617115 27.04063832 1 27 C0 26 0 26 -0.11352539 23.49975586 C-0.10828857 22.41573486 -0.10305176 21.33171387 -0.09765625 20.21484375 C-0.09443359 19.04501953 -0.09121094 17.87519531 -0.08789062 16.66992188 C-0.07951172 15.43822266 -0.07113281 14.20652344 -0.0625 12.9375 C-0.05798828 11.70193359 -0.05347656 10.46636719 -0.04882812 9.19335938 C-0.03699608 6.12885883 -0.02051173 3.06445279 0 0 Z " fill="#A7A7A7" transform="translate(280,63)"/>
<path d="M0 0 C1.65 0 3.3 0 5 0 C5 10.56 5 21.12 5 32 C10.61 32 16.22 32 22 32 C22.33 33.65 22.66 35.3 23 37 C15.41 37 7.82 37 0 37 C0 24.79 0 12.58 0 0 Z " fill="#484848" transform="translate(179,53)"/>
<path d="M0 0 C0.79921875 0.11085937 1.5984375 0.22171875 2.421875 0.3359375 C3.02515625 0.43132813 3.6284375 0.52671875 4.25 0.625 C5.8871474 4.21935994 6.49140626 6.98476468 6.4453125 10.92578125 C6.43886719 11.90224609 6.43242187 12.87871094 6.42578125 13.88476562 C6.40902344 14.89216797 6.39226562 15.89957031 6.375 16.9375 C6.36597656 17.96423828 6.35695313 18.99097656 6.34765625 20.04882812 C6.32416201 22.57445899 6.29131131 25.0996081 6.25 27.625 C4.93 27.625 3.61 27.625 2.25 27.625 C2.22494385 26.9637915 2.1998877 26.30258301 2.17407227 25.62133789 C2.05846898 22.64317695 1.93558246 19.6653608 1.8125 16.6875 C1.77318359 15.64658203 1.73386719 14.60566406 1.69335938 13.53320312 C1.65146484 12.54384766 1.60957031 11.55449219 1.56640625 10.53515625 C1.52974854 9.61871338 1.49309082 8.70227051 1.45532227 7.75805664 C1.47996136 5.6429272 1.47996136 5.6429272 0.25 4.625 C-2.97335194 4.33847983 -5.05983448 4.2341505 -7.91113281 5.84887695 C-10.22225523 8.08114137 -10.27866995 9.12529553 -10.359375 12.29296875 C-10.39160156 13.18564453 -10.42382812 14.07832031 -10.45703125 14.99804688 C-10.47830078 16.39120117 -10.47830078 16.39120117 -10.5 17.8125 C-10.52964844 18.75287109 -10.55929687 19.69324219 -10.58984375 20.66210938 C-10.66053562 22.98315916 -10.71323165 25.30320535 -10.75 27.625 C-12.07 27.625 -13.39 27.625 -14.75 27.625 C-14.75 18.715 -14.75 9.805 -14.75 0.625 C-13.43 0.625 -12.11 0.625 -10.75 0.625 C-10.75 1.615 -10.75 2.605 -10.75 3.625 C-10.09 3.625 -9.43 3.625 -8.75 3.625 C-8.75 2.965 -8.75 2.305 -8.75 1.625 C-5.5750906 -0.2828584 -3.64414789 -0.5359041 0 0 Z " fill="#4D4D4D" transform="translate(457.75,62.375)"/>
<path d="M0 0 C3.125 1.25 3.125 1.25 5 3 C5 4.32 5 5.64 5 7 C3.68 7 2.36 7 1 7 C0.34 6.01 -0.32 5.02 -1 4 C-4.58357241 3.74984127 -4.58357241 3.74984127 -8 4 C-8.33 5.65 -8.66 7.3 -9 9 C-8.42378906 9.12503906 -7.84757812 9.25007813 -7.25390625 9.37890625 C-4.96270808 10.01027628 -3.05119396 10.85825357 -0.9375 11.9375 C-0.26589844 12.27652344 0.40570313 12.61554688 1.09765625 12.96484375 C3 14 3 14 6 16 C6.69389206 19.90314282 6.29972139 21.5404272 4.125 24.875 C0.31282818 27.46727684 -2.08695285 27.72208 -6.6171875 27.4921875 C-10.31302146 26.72878573 -11.91431069 25.05901098 -14 22 C-14 20.68 -14 19.36 -14 18 C-12.68 18 -11.36 18 -10 18 C-9.34 19.98 -8.68 21.96 -8 24 C-4.53058454 23.54177532 -1.32604951 23.10868317 2 22 C0.86550121 18.10973541 0.86550121 18.10973541 -2.27734375 15.7421875 C-3.15519531 15.45601562 -4.03304688 15.16984375 -4.9375 14.875 C-8.34412536 13.74113059 -10.79688645 12.9232251 -13 10 C-13.65271967 3.90794979 -13.65271967 3.90794979 -11.78125 1.3046875 C-8.33848928 -1.21698373 -4.06906908 -0.47947629 0 0 Z " fill="#323232" transform="translate(483,63)"/>
<path d="M0 0 C2.875 0.625 2.875 0.625 4.75 2.4375 C6.39312587 7.0930233 6.61722687 11.74231147 5.875 16.625 C4.3515625 18.96484375 4.3515625 18.96484375 2.875 20.625 C-4.61867438 20.13361152 -4.61867438 20.13361152 -6.85546875 17.88671875 C-9.0694753 13.94238093 -8.87555398 10.00795204 -8.125 5.625 C-5.65393846 1.99108598 -4.30215243 0.86043049 0 0 Z " fill="#F7F7F7" transform="translate(507.125,65.375)"/>
<path d="M0 0 C3 0.6875 3 0.6875 5.375 2.5625 C7.68042059 6.99600114 7.77370737 10.78735335 7 15.6875 C5.3125 19.3125 5.3125 19.3125 3 21.6875 C0.5 22.3125 0.5 22.3125 -2 21.6875 C-4.79035429 19.4397146 -5.85910005 18.11019984 -7 14.6875 C-7.39017972 9.9273074 -7.40014166 7.54934358 -5.375 3.1875 C-3 0.6875 -3 0.6875 0 0 Z " fill="#F6F6F6" transform="translate(590,65.3125)"/>
<path d="M0 0 C3.0625 0.5625 3.0625 0.5625 5.4375 2.4375 C7.74292059 6.87100114 7.83620737 10.66235335 7.0625 15.5625 C5.375 19.1875 5.375 19.1875 3.0625 21.5625 C0.5 22.125 0.5 22.125 -1.9375 21.5625 C-4.4423111 19.68389167 -4.92450625 18.60148126 -5.9375 15.5625 C-6.08109334 13.75377624 -6.15796121 11.93917423 -6.1875 10.125 C-6.21328125 9.17753906 -6.2390625 8.23007813 -6.265625 7.25390625 C-5.73492719 2.90092066 -4.34317925 0.83167262 0 0 Z " fill="#EEEEEE" transform="translate(136.9375,65.4375)"/>
<path d="M0 0 C5.61 0 11.22 0 17 0 C17 0.33 17 0.66 17 1 C12.05 1 7.1 1 2 1 C2 5.95 2 10.9 2 16 C4.041875 15.87625 6.08375 15.7525 8.1875 15.625 C9.91033203 15.52058594 9.91033203 15.52058594 11.66796875 15.4140625 C15.56113682 14.93026905 18.52543976 13.73728012 22 12 C21.67 13.98 21.34 15.96 21 18 C21.99 18.66 22.98 19.32 24 20 C24.29296875 23.2578125 24.29296875 23.2578125 24.1875 27.125 C24.16042969 28.40632813 24.13335937 29.68765625 24.10546875 31.0078125 C24.07066406 31.99523437 24.03585938 32.98265625 24 34 C22.68 34 21.36 34 20 34 C19.95101562 33.15695313 19.90203125 32.31390625 19.8515625 31.4453125 C19.77679688 30.34960938 19.70203125 29.25390625 19.625 28.125 C19.55539063 27.03445312 19.48578125 25.94390625 19.4140625 24.8203125 C19.26746509 21.86953526 19.26746509 21.86953526 17 20 C14.43083343 19.69400937 11.95241616 19.48912913 9.375 19.375 C8.66859375 19.33632812 7.9621875 19.29765625 7.234375 19.2578125 C5.49001476 19.16352276 3.74504309 19.08067109 2 19 C2 23.62 2 28.24 2 33 C1.34 33 0.68 33 0 33 C0 22.11 0 11.22 0 0 Z " fill="#0A0A0A" transform="translate(40,55)"/>
<path d="M0 0 C2.27024968 -0.08097324 4.54132075 -0.13917704 6.8125 -0.1875 C8.07707031 -0.22230469 9.34164062 -0.25710937 10.64453125 -0.29296875 C14 0 14 0 15.9296875 1.32421875 C17.58647842 3.91824541 17.31241021 6.00086201 17 9 C15 12 15 12 13.234375 12.68359375 C8.84028247 13.30583413 4.42904032 13.05272667 0 13 C0 8.71 0 4.42 0 0 Z " fill="#F7F7F7" transform="translate(43,57)"/>
<path d="M0 0 C1.65 0 3.3 0 5 0 C5 12.21 5 24.42 5 37 C-11 38 -11 38 -16 34 C-18.09006269 28.92413346 -18.75546717 23.45491734 -18 18 C-17.34 17.34 -16.68 16.68 -16 16 C-16 20.62 -16 25.24 -16 30 C-15.34 30 -14.68 30 -14 30 C-14 26.04 -14 22.08 -14 18 C-13.67 18 -13.34 18 -13 18 C-12.87882813 18.91523437 -12.75765625 19.83046875 -12.6328125 20.7734375 C-12.46523437 21.96195313 -12.29765625 23.15046875 -12.125 24.375 C-11.96257812 25.55835937 -11.80015625 26.74171875 -11.6328125 27.9609375 C-11.2697415 31.09566659 -11.2697415 31.09566659 -9 33 C-6.42938689 33.64767793 -6.42938689 33.64767793 -4 34 C-3.566875 33.071875 -3.566875 33.071875 -3.125 32.125 C-2 30 -2 30 0 28 C0.33 30.64 0.66 33.28 1 36 C1.99 36 2.98 36 4 36 C4 24.45 4 12.9 4 1 C3.01 1 2.02 1 1 1 C1 4.96 1 8.92 1 13 C0.34 12.67 -0.32 12.34 -1 12 C-0.67 8.04 -0.34 4.08 0 0 Z " fill="#494949" transform="translate(144,53)"/>
<path d="M0 0 C4.24965874 1.57571616 7.83546412 3.92557953 10 8 C10 9.32 10 10.64 10 12 C8.68 12 7.36 12 6 12 C4.4375 9.625 4.4375 9.625 3 7 C-0.72480214 4.51679857 -3.09309473 4.41487625 -7.484375 4.47265625 C-11.24986862 5.26200662 -12.74395661 7.24805357 -14.94140625 10.2734375 C-17.00749109 13.64321425 -17.268433 16.17610024 -17.5625 20.125 C-17.64628906 21.22070312 -17.73007812 22.31640625 -17.81640625 23.4453125 C-17.87699219 24.28835937 -17.93757813 25.13140625 -18 26 C-18.99 26 -19.98 26 -21 26 C-21.58890413 11.49550945 -21.58890413 11.49550945 -18 6 C-12.76530529 0.37615533 -7.57979712 -1.45670368 0 0 Z " fill="#424242" transform="translate(352,52)"/>
<path d="M0 0 C0.99 0 1.98 0 3 0 C3 2.31 3 4.62 3 7 C4.65 7 6.3 7 8 7 C8 7.99 8 8.98 8 10 C6.35 10 4.7 10 3 10 C3.33 16.27 3.66 22.54 4 29 C6.475 29.99 6.475 29.99 9 31 C9 31.99 9 32.98 9 34 C2.375 34.25 2.375 34.25 -1 32 C-1.34057617 29.84521484 -1.34057617 29.84521484 -1.29296875 27.2109375 C-1.2784668 25.79941406 -1.2784668 25.79941406 -1.26367188 24.359375 C-1.23853516 23.37453125 -1.21339844 22.3896875 -1.1875 21.375 C-1.17396484 20.38242188 -1.16042969 19.38984375 -1.14648438 18.3671875 C-1.11105743 15.91091928 -1.06166196 13.45572715 -1 11 C-2.32 11 -3.64 11 -5 11 C-5 9.68 -5 8.36 -5 7 C-3.35 7 -1.7 7 0 7 C0 4.69 0 2.38 0 0 Z " fill="#0B0B0B" transform="translate(401,56)"/>
<path d="M0 0 C1.65 0 3.3 0 5 0 C5 0.66 5 1.32 5 2 C5.99 1.34 6.98 0.68 8 0 C11.1875 -0.125 11.1875 -0.125 14 0 C14 1.32 14 2.64 14 4 C12.865625 4.309375 11.73125 4.61875 10.5625 4.9375 C7.21224901 5.62924531 7.21224901 5.62924531 6 7 C5.84344973 8.48638992 5.74933057 9.97949127 5.68359375 11.47265625 C5.64169922 12.37177734 5.59980469 13.27089844 5.55664062 14.19726562 C5.49766602 15.61555664 5.49766602 15.61555664 5.4375 17.0625 C5.37272461 18.4865918 5.37272461 18.4865918 5.30664062 19.93945312 C5.20020724 22.29281353 5.09818992 24.64628354 5 27 C3.35 26.67 1.7 26.34 0 26 C0 17.42 0 8.84 0 0 Z " fill="#595959" transform="translate(263,63)"/>
<path d="M0 0 C4.29 0 8.58 0 13 0 C13 1.32 13 2.64 13 4 C11.02 4.33 9.04 4.66 7 5 C6.09166031 7.72501908 5.81640015 9.62233971 5.68359375 12.44921875 C5.64169922 13.29677734 5.59980469 14.14433594 5.55664062 15.01757812 C5.51732422 15.89865234 5.47800781 16.77972656 5.4375 17.6875 C5.39431641 18.58017578 5.35113281 19.47285156 5.30664062 20.39257812 C5.20064647 22.59490108 5.09857949 24.79733473 5 27 C3.35 27 1.7 27 0 27 C0 18.09 0 9.18 0 0 Z " fill="#555555" transform="translate(536,63)"/>
<path d="M0 0 C3.48109888 1.01348449 6.00819736 2.76201645 8.16015625 5.62890625 C8.98928303 8.6564367 9.00040494 11.56589458 8.97265625 14.69140625 C8.99699915 16.28650695 9.02424359 17.88156658 9.0546875 19.4765625 C9.05315674 20.17789307 9.05162598 20.87922363 9.05004883 21.60180664 C9.16524055 23.7225093 9.58206102 25.5896975 10.16015625 27.62890625 C8.84015625 27.62890625 7.52015625 27.62890625 6.16015625 27.62890625 C3.95207544 22.433422 4.22612901 19.04626422 5.16015625 13.62890625 C4.17015625 13.29890625 3.18015625 12.96890625 2.16015625 12.62890625 C2.49015625 10.64890625 2.82015625 8.66890625 3.16015625 6.62890625 C0.20351106 5.15058365 -2.58214112 5.56857842 -5.83984375 5.62890625 C-6.49984375 6.94890625 -7.15984375 8.26890625 -7.83984375 9.62890625 C-9.15984375 9.62890625 -10.47984375 9.62890625 -11.83984375 9.62890625 C-11.56237883 6.29932718 -11.02888271 4.84085902 -8.77734375 2.31640625 C-5.7487274 0.57656281 -3.48216189 0.12155391 0 0 Z " fill="#444444" transform="translate(111.83984375,61.37109375)"/>
<path d="M0 0 C1.65 0 3.3 0 5 0 C5 12.21 5 24.42 5 37 C3.68 37 2.36 37 1 37 C1 36.01 1 35.02 1 34 C0.29875 34.495 -0.4025 34.99 -1.125 35.5 C-4.58135377 37.30331501 -6.15471598 37.69215112 -10 37 C-13.22908443 34.95115588 -16.36198943 32.77627943 -17.6875 29.0859375 C-18.02609835 26.8257935 -18.16838935 24.66063331 -18.1875 22.375 C-18.20167969 21.59898438 -18.21585938 20.82296875 -18.23046875 20.0234375 C-18 18 -18 18 -16 16 C-15.67 19.63 -15.34 23.26 -15 27 C-14.34 27 -13.68 27 -13 27 C-13 27.99 -13 28.98 -13 30 C-12.01 30.33 -11.02 30.66 -10 31 C-9.67 31.66 -9.34 32.32 -9 33 C-6.66928121 33.41870553 -6.66928121 33.41870553 -4 33 C-1.66369252 30.60140956 -1.66369252 30.60140956 0 28 C0 29.32 0 30.64 0 32 C0.66 32.33 1.32 32.66 2 33 C2 33.99 2 34.98 2 36 C2.66 36 3.32 36 4 36 C4 24.45 4 12.9 4 1 C3.01 1 2.02 1 1 1 C1 4.96 1 8.92 1 13 C0.01 12.67 -0.98 12.34 -2 12 C-1.34 11.67 -0.68 11.34 0 11 C0 7.37 0 3.74 0 0 Z " fill="#5F5F5F" transform="translate(597,53)"/>
<path d="M0 0 C1.32 0 2.64 0 4 0 C4 12.21 4 24.42 4 37 C2.68 37 1.36 37 0 37 C0 24.79 0 12.58 0 0 Z " fill="#2C2C2C" transform="translate(429,53)"/>
<path d="M0 0 C4.23160079 0.03632275 6.90742162 0.44654716 10.25 3.25 C11.35982356 5.46964712 11.42829168 6.81483257 11.53125 9.27734375 C11.56863281 10.06947266 11.60601562 10.86160156 11.64453125 11.67773438 C11.69673828 12.92006836 11.69673828 12.92006836 11.75 14.1875 C11.81900029 15.82178464 11.89176558 17.45591575 11.96875 19.08984375 C11.99904297 19.81550537 12.02933594 20.54116699 12.06054688 21.28881836 C12.19683305 23.46307065 12.19683305 23.46307065 13.25 26.25 C11.93 26.25 10.61 26.25 9.25 26.25 C9.25 24.93 9.25 23.61 9.25 22.25 C8.26 21.92 7.27 21.59 6.25 21.25 C6.58 20.92 6.91 20.59 7.25 20.25 C7.48075082 18.90252916 7.66153063 17.54622435 7.8125 16.1875 C7.956875 14.888125 8.10125 13.58875 8.25 12.25 C7.26 12.58 6.27 12.91 5.25 13.25 C5.58 10.61 5.91 7.97 6.25 5.25 C3.46136993 3.85568496 1.32921132 3.99339906 -1.75 4.25 C-2.74 5.735 -2.74 5.735 -3.75 7.25 C-5.07 7.25 -6.39 7.25 -7.75 7.25 C-5.46714358 0.09704989 -5.46714358 0.09704989 0 0 Z " fill="#262626" transform="translate(243.75,62.75)"/>
<path d="M0 0 C1.41778293 2.83556587 0.86257622 4.9908706 0.5625 8.125 C0.46066406 9.22070312 0.35882813 10.31640625 0.25390625 11.4453125 C0.17011719 12.28835937 0.08632812 13.13140625 0 14 C0.66 14 1.32 14 2 14 C2 12.35 2 10.7 2 9 C2.2475 9.5775 2.495 10.155 2.75 10.75 C4.23824784 13.42884611 5.57263634 15.11205049 8 17 C11.5104097 17.51193475 13.23672771 17.52338671 16.1875 15.5 C16.785625 15.005 17.38375 14.51 18 14 C18.99 14 19.98 14 21 14 C20.09126425 17.05665662 19.32469175 18.72305703 16.875 20.8125 C12.43496368 22.64642805 8.45983419 22.61495855 3.75 21.4375 C0.24987039 18.56239353 -1.70821033 15.11369592 -2.3203125 10.6796875 C-2.41705173 6.49226104 -2.08414201 3.69309964 0 0 Z " fill="#676767" transform="translate(208,68)"/>
<path d="M0 0 C4.95 0 9.9 0 15 0 C15 6.27 15 12.54 15 19 C14.34 19 13.68 19 13 19 C13 17.02 13 15.04 13 13 C12.01 12.67 11.02 12.34 10 12 C10.33 9.36 10.66 6.72 11 4 C7.37 4 3.74 4 0 4 C0 2.68 0 1.36 0 0 Z " fill="#3B3B3B" transform="translate(347,70)"/>
<path d="M0 0 C5.95703125 -0.390625 5.95703125 -0.390625 8 0 C10.86615732 3.02616125 11.36468529 5.0913769 11.29296875 9.203125 C11.28330078 10.1828125 11.27363281 11.1625 11.26367188 12.171875 C11.23853516 13.18765625 11.21339844 14.2034375 11.1875 15.25 C11.17396484 16.28125 11.16042969 17.3125 11.14648438 18.375 C11.11117607 20.91719792 11.06186036 23.45833223 11 26 C9.68 26 8.36 26 7 26 C6.97494385 25.34926514 6.9498877 24.69853027 6.92407227 24.02807617 C6.80806298 21.08101954 6.68535885 18.1342787 6.5625 15.1875 C6.52318359 14.16333984 6.48386719 13.13917969 6.44335938 12.08398438 C6.40146484 11.10107422 6.35957031 10.11816406 6.31640625 9.10546875 C6.27974854 8.19949951 6.24309082 7.29353027 6.20532227 6.36010742 C6.0791795 3.84951218 6.0791795 3.84951218 5 1 C3.35 1 1.7 1 0 1 C0 0.67 0 0.34 0 0 Z " fill="#1F1F1F" transform="translate(453,64)"/>
<path d="M0 0 C1.32 0 2.64 0 4 0 C4 8.91 4 17.82 4 27 C2.68 27 1.36 27 0 27 C0 18.09 0 9.18 0 0 Z " fill="#252525" transform="translate(524,63)"/>
<path d="M0 0 C0.66 0 1.32 0 2 0 C2 0.99 2 1.98 2 3 C2.99 3 3.98 3 5 3 C4.83757812 3.556875 4.67515625 4.11375 4.5078125 4.6875 C3.95777553 7.19228372 3.86718744 9.437481 3.875 12 C3.87242187 12.845625 3.86984375 13.69125 3.8671875 14.5625 C3.99166289 16.84698944 4.36122543 18.80991574 5 21 C4.34 21.33 3.68 21.66 3 22 C2.53045739 25.04581269 2.53045739 25.04581269 2.375 28.5625 C2.30023438 29.76003906 2.22546875 30.95757812 2.1484375 32.19140625 C2.09945313 33.11824219 2.05046875 34.04507813 2 35 C1.34 35 0.68 35 0 35 C0 23.45 0 11.9 0 0 Z " fill="#070707" transform="translate(496,64)"/>
<path d="M0 0 C0.33 0 0.66 0 1 0 C1 4.29 1 8.58 1 13 C0.01 13.495 0.01 13.495 -1 14 C-1.33 14.99 -1.66 15.98 -2 17 C-2.37125 16.360625 -2.7425 15.72125 -3.125 15.0625 C-5.58052793 12.36141928 -7.44578805 12.31592995 -11 12 C-11.309375 12.61875 -11.61875 13.2375 -11.9375 13.875 C-12.625 15.25 -13.3125 16.625 -14 18 C-14.22622081 19.70363822 -14.40888473 21.41328701 -14.5625 23.125 C-14.64628906 24.03507812 -14.73007812 24.94515625 -14.81640625 25.8828125 C-14.87699219 26.58148438 -14.93757812 27.28015625 -15 28 C-17.76315716 25.23684284 -17.33171199 23.47763277 -17.375 19.625 C-17.40335938 18.48289062 -17.43171875 17.34078125 -17.4609375 16.1640625 C-17 13 -17 13 -15.29296875 10.61328125 C-12.59566745 8.71552071 -11.20535734 8.48856658 -7.9375 8.5625 C-7.08027344 8.56378906 -6.22304688 8.56507812 -5.33984375 8.56640625 C-3 9 -3 9 0 12 C0 8.04 0 4.08 0 0 Z " fill="#232323" transform="translate(598,54)"/>
<path d="M0 0 C3.55628122 -0.39514236 6.01287577 -0.53372559 9.20214844 1.19067383 C11 3 11 3 11.45410156 5.4519043 C11.4331543 6.39976807 11.41220703 7.34763184 11.390625 8.32421875 C11.37773437 9.35224609 11.36484375 10.38027344 11.3515625 11.43945312 C11.31804687 12.51130859 11.28453125 13.58316406 11.25 14.6875 C11.23195313 15.77095703 11.21390625 16.85441406 11.1953125 17.97070312 C11.14813508 20.64802146 11.08232249 23.32356909 11 26 C10.01 26 9.02 26 8 26 C7.67 18.41 7.34 10.82 7 3 C4.03 3 1.06 3 -2 3 C-1.34 2.01 -0.68 1.02 0 0 Z " fill="#1A1A1A" transform="translate(290,63)"/>
<path d="M0 0 C2.875 1.75 2.875 1.75 5 4 C5 5.32 5 6.64 5 8 C0.05 8 -4.9 8 -10 8 C-9 3 -9 3 -7.8125 1.1875 C-5.05641317 -0.61821206 -3.22701096 -0.45178153 0 0 Z " fill="#F7F7F7" transform="translate(384,66)"/>
<path d="M0 0 C2.875 1.75 2.875 1.75 5 4 C5 5.32 5 6.64 5 8 C0.05 8 -4.9 8 -10 8 C-9 3 -9 3 -7.8125 1.1875 C-5.05641317 -0.61821206 -3.22701096 -0.45178153 0 0 Z " fill="#DBDBDB" transform="translate(221,66)"/>
<path d="M0 0 C3.72562868 0.32117489 5.20090382 0.50054843 7.625 3.3125 C7.625 4.9625 7.625 6.6125 7.625 8.3125 C3.005 8.3125 -1.615 8.3125 -6.375 8.3125 C-5.06778997 0.46923981 -5.06778997 0.46923981 0 0 Z " fill="#DEDEDE" transform="translate(82.375,65.6875)"/>
<path d="M0 0 C2.375 1.1875 2.375 1.1875 4 3 C4 4.65 4 6.3 4 8 C-0.62 8 -5.24 8 -10 8 C-9 3 -9 3 -7.8125 1.1875 C-5.09937351 -0.59006563 -3.17290804 -0.38851935 0 0 Z " fill="#F7F7F7" transform="translate(566,66)"/>
<path d="M0 0 C0.36666667 5.5 0.36666667 5.5 -1.375 7.875 C-3 9 -3 9 -5 9 C-5 9.66 -5 10.32 -5 11 C-7.375 11.125 -7.375 11.125 -10 11 C-12 9 -12 9 -12.125 6.375 C-12.08375 5.59125 -12.0425 4.8075 -12 4 C-10.3767313 3.3291288 -8.75132422 2.66342971 -7.125 2 C-6.22007812 1.62875 -5.31515625 1.2575 -4.3828125 0.875 C-2 0 -2 0 0 0 Z " fill="#E6E6E6" transform="translate(251,76)"/>
<path d="M0 0 C2.875 2 2.875 2 5 4 C4.34 5.32 3.68 6.64 3 8 C2.62875 7.34 2.2575 6.68 1.875 6 C0.10400629 3.70531552 0.10400629 3.70531552 -3 3.5 C-6.02303577 3.70564488 -6.02303577 3.70564488 -7.64453125 5.640625 C-9.34403779 8.59884388 -9.50310544 10.85714012 -9.6875 14.25 C-9.78611328 15.86648437 -9.78611328 15.86648437 -9.88671875 17.515625 C-9.92410156 18.33546875 -9.96148437 19.1553125 -10 20 C-10.66 20 -11.32 20 -12 20 C-12.0809313 17.39521117 -12.14045434 14.79293347 -12.1875 12.1875 C-12.22520508 11.08051758 -12.22520508 11.08051758 -12.26367188 9.95117188 C-12.33770905 4.49709976 -12.33770905 4.49709976 -10.67578125 2.05078125 C-7.16801049 -0.14873002 -4.0398447 -0.40398447 0 0 Z " fill="#1E1E1E" transform="translate(140,63)"/>
<path d="M0 0 C7.23186925 -0.49029622 7.23186925 -0.49029622 10.9375 1.875 C14.8552676 5.91148783 14 6.42910448 14 13 C8.06 13 2.12 13 -4 13 C-4 12.67 -4 12.34 -4 12 C0.95 12 5.9 12 11 12 C9.68702878 6.01461763 9.68702878 6.01461763 6 4 C3.94290404 3.75944532 3.94290404 3.75944532 1.8125 3.875 C0.554375 3.91625 -0.70375 3.9575 -2 4 C-1.34 2.68 -0.68 1.36 0 0 Z " fill="#1D1D1D" transform="translate(80,63)"/>
<path d="M0 0 C0.3125 2.75 0.3125 2.75 0 6 C-2.52327542 8.73955617 -4.02694678 9.88942577 -7.75 10.3125 C-10 10 -10 10 -11 9 C-11.375 6.625 -11.375 6.625 -11 4 C-7.63097288 1.37964558 -4.26920922 0 0 0 Z " fill="#F0F0F0" transform="translate(116,76)"/>
<path d="M0 0 C1.65 0 3.3 0 5 0 C5 12.21 5 24.42 5 37 C-2.92 37.495 -2.92 37.495 -11 38 C-11.66 37.01 -12.32 36.02 -13 35 C-12.11248047 35.14308594 -12.11248047 35.14308594 -11.20703125 35.2890625 C-6.55619775 35.94154485 -3.27685626 36.34537279 1 34 C1 34.66 1 35.32 1 36 C1.99 36 2.98 36 4 36 C4 24.45 4 12.9 4 1 C3.01 1 2.02 1 1 1 C1 4.96 1 8.92 1 13 C0.34 12.67 -0.32 12.34 -1 12 C-0.67 8.04 -0.34 4.08 0 0 Z " fill="#989898" transform="translate(144,53)"/>
<path d="M0 0 C1.32 0.33 2.64 0.66 4 1 C3.01 1 2.02 1 1 1 C1 1.66 1 2.32 1 3 C2.65 3 4.3 3 6 3 C6.33 9.93 6.66 16.86 7 24 C7.66 23.34 8.32 22.68 9 22 C11.475 22.99 11.475 22.99 14 24 C14 24.99 14 25.98 14 27 C7.375 27.25 7.375 27.25 4 25 C3.65942383 22.84521484 3.65942383 22.84521484 3.70703125 20.2109375 C3.7215332 18.79941406 3.7215332 18.79941406 3.73632812 17.359375 C3.76146484 16.37453125 3.78660156 15.3896875 3.8125 14.375 C3.83280273 12.88613281 3.83280273 12.88613281 3.85351562 11.3671875 C3.88894257 8.91091928 3.93833804 6.45572715 4 4 C2.68 4 1.36 4 0 4 C0 2.68 0 1.36 0 0 Z " fill="#4E4E4E" transform="translate(396,63)"/>
<path d="M0 0 C2 2 4 4 6 6 C10.0642508 5.79561574 10.0642508 5.79561574 14 5 C14.66 4.01 15.32 3.02 16 2 C16.66 2 17.32 2 18 2 C17.6406828 4.5152204 16.93759565 6.09767638 15.5625 8.25 C12.11494921 10.60442493 9.46512644 10.62309607 5.35546875 10.453125 C3 10 3 10 0.3125 7.8125 C-1.18232588 4.60930168 -1.12924853 3.29364156 0 0 Z " fill="#2B2B2B" transform="translate(75,80)"/>
<path d="M0 0 C0.66 0 1.32 0 2 0 C2 0.99 2 1.98 2 3 C2.99 3 3.98 3 5 3 C4.67 3.99 4.34 4.98 4 6 C3.85426942 7.47965926 3.75336732 8.96403843 3.68359375 10.44921875 C3.64169922 11.29677734 3.59980469 12.14433594 3.55664062 13.01757812 C3.49766602 14.33918945 3.49766602 14.33918945 3.4375 15.6875 C3.39431641 16.58017578 3.35113281 17.47285156 3.30664062 18.39257812 C3.20064647 20.59490108 3.09857949 22.79733473 3 25 C2.01 25 1.02 25 0 25 C0 16.75 0 8.5 0 0 Z " fill="#262626" transform="translate(281,64)"/>
<path d="M0 0 C0.66 0 1.32 0 2 0 C4.34726288 5.46500137 4.06052937 10.09116996 3.625 15.875 C3.56828125 16.75414063 3.5115625 17.63328125 3.453125 18.5390625 C3.31262332 20.69342162 3.1577566 22.84683563 3 25 C2.01 25 1.02 25 0 25 C0 16.75 0 8.5 0 0 Z " fill="#0C0C0C" transform="translate(444,64)"/>
<path d="M0 0 C3.96287721 0.38104589 5.4323945 1.57539752 8.25 4.3125 C9.25 6.3125 9.25 6.3125 9.25 13.3125 C3.31 13.3125 -2.63 13.3125 -8.75 13.3125 C-8.75 12.9825 -8.75 12.6525 -8.75 12.3125 C-3.8 12.3125 1.15 12.3125 6.25 12.3125 C4.1150023 5.90750689 3.47402719 5.01406991 -2 2.125 C-2.5775 1.856875 -3.155 1.58875 -3.75 1.3125 C-2.75 0.3125 -2.75 0.3125 0 0 Z " fill="#1E1E1E" transform="translate(564.75,62.6875)"/>
<path d="M0 0 C0.66 0.33 1.32 0.66 2 1 C2 1.66 2 2.32 2 3 C2.66 3 3.32 3 4 3 C4 4.98 4 6.96 4 9 C-1.94 9.33 -7.88 9.66 -14 10 C-14.33 11.65 -14.66 13.3 -15 15 C-15.66 15 -16.32 15 -17 15 C-17 12.36 -17 9.72 -17 7 C-11.06 7 -5.12 7 1 7 C0.67 4.69 0.34 2.38 0 0 Z " fill="#1A1A1A" transform="translate(225,67)"/>
<path d="M0 0 C0 1.32 0 2.64 0 4 C-1.093125 4.309375 -2.18625 4.61875 -3.3125 4.9375 C-5.55407994 5.58337897 -7.7869351 6.2623117 -10 7 C-10.33 12.94 -10.66 18.88 -11 25 C-11.33 25 -11.66 25 -12 25 C-12 17.08 -12 9.16 -12 1 C-11.34 1 -10.68 1 -10 1 C-10 1.66 -10 2.32 -10 3 C-9.46375 2.505 -8.9275 2.01 -8.375 1.5 C-5.40641555 -0.37489544 -3.44687573 -0.23501425 0 0 Z " fill="#353535" transform="translate(277,63)"/>
<path d="M0 0 C0.99 0.33 1.98 0.66 3 1 C3.06058594 2.26457031 3.12117187 3.52914062 3.18359375 4.83203125 C3.26800904 6.49219871 3.35265655 8.15235437 3.4375 9.8125 C3.47681641 10.64587891 3.51613281 11.47925781 3.55664062 12.33789062 C3.59853516 13.14033203 3.64042969 13.94277344 3.68359375 14.76953125 C3.72025146 15.50792236 3.75690918 16.24631348 3.79467773 17.00708008 C3.94842141 19.207495 3.94842141 19.207495 5 22 C3.68 22 2.36 22 1 22 C1 20.68 1 19.36 1 18 C0.01 17.67 -0.98 17.34 -2 17 C-1.67 16.67 -1.34 16.34 -1 16 C-0.95294038 14.43820884 -0.96264148 12.87455333 -1 11.3125 C-1.04469939 7.41806542 -0.80572583 3.82719768 0 0 Z " fill="#070707" transform="translate(252,67)"/>
<path d="M0 0 C0.66 0 1.32 0 2 0 C3.13468583 3.4040575 3.28958323 6.3566575 3.5 9.9375 C3.81147283 15.54064533 3.81147283 15.54064533 5 21 C3.68 21 2.36 21 1 21 C-1.20808081 15.80451575 -0.93402724 12.41735797 0 7 C-0.99 6.67 -1.98 6.34 -3 6 C-2.01 5.67 -1.02 5.34 0 5 C0 3.35 0 1.7 0 0 Z " fill="#121212" transform="translate(117,68)"/>
<path d="M0 0 C0 1.98 0 3.96 0 6 C-0.33 6 -0.66 6 -1 6 C-1 4.35 -1 2.7 -1 1 C-1.62648438 1.28875 -2.25296875 1.5775 -2.8984375 1.875 C-3.71570313 2.24625 -4.53296875 2.6175 -5.375 3 C-6.59316406 3.556875 -6.59316406 3.556875 -7.8359375 4.125 C-10 5 -10 5 -12 5 C-11.81171228 7.44480079 -11.81171228 7.44480079 -11 10 C-9.03241727 11.36020151 -9.03241727 11.36020151 -7 12 C-9.375 12.125 -9.375 12.125 -12 12 C-12.66 11.34 -13.32 10.68 -14 10 C-13.625 6.375 -13.625 6.375 -13 3 C-13.66 2.67 -14.32 2.34 -15 2 C-5.17233728 -3.2566568 -5.17233728 -3.2566568 0 0 Z " fill="#656565" transform="translate(117,75)"/>
<path d="M0 0 C-0.54723683 3.37462715 -1.0549 5.08235 -3 8 C-3.45915507 10.96842658 -3.45915507 10.96842658 -3.625 14.1875 C-3.69976562 15.27417969 -3.77453125 16.36085938 -3.8515625 17.48046875 C-3.90054687 18.31191406 -3.94953125 19.14335938 -4 20 C-4.99 20 -5.98 20 -7 20 C-7.054348 17.9377952 -7.09294961 15.87517184 -7.125 13.8125 C-7.14820313 12.66394531 -7.17140625 11.51539062 -7.1953125 10.33203125 C-7.00153592 7.02620285 -6.55792505 4.90434372 -5 2 C-2 0 -2 0 0 0 Z " fill="#272727" transform="translate(338,58)"/>
<path d="M0 0 C1.32 0 2.64 0 4 0 C3.67 2.31 3.34 4.62 3 7 C-1.62149 9.46479466 -6.87370229 9.84379768 -12 9 C-12.66 8.01 -13.32 7.02 -14 6 C-9.05 6.99 -9.05 6.99 -4 8 C-4 7.34 -4 6.68 -4 6 C-5.65 6 -7.3 6 -9 6 C-9 5.67 -9 5.34 -9 5 C-7.88625 4.731875 -6.7725 4.46375 -5.625 4.1875 C-1.78159049 3.34190981 -1.78159049 3.34190981 0 0 Z " fill="#7C7C7C" transform="translate(570,81)"/>
<path d="M0 0 C1.32 0.66 2.64 1.32 4 2 C4 6.62 4 11.24 4 16 C2.68 16 1.36 16 0 16 C-0.07347656 14.75283203 -0.07347656 14.75283203 -0.1484375 13.48046875 C-0.22320312 12.39378906 -0.29796875 11.30710937 -0.375 10.1875 C-0.44460937 9.10855469 -0.51421875 8.02960938 -0.5859375 6.91796875 C-0.81195733 3.81373814 -0.81195733 3.81373814 -3 1 C-2.01 0.67 -1.02 0.34 0 0 Z " fill="#3F3F3F" transform="translate(60,73)"/>
<path d="M0 0 C8.84120172 -0.46351931 8.84120172 -0.46351931 13.125 1.25 C13.74375 1.8275 14.3625 2.405 15 3 C15 4.32 15 5.64 15 7 C13.68 7 12.36 7 11 7 C10.34 6.01 9.68 5.02 9 4 C4.76001646 3.60740893 1.63266059 3.67509722 -2 6 C-1.34 4.02 -0.68 2.04 0 0 Z " fill="#1E1E1E" transform="translate(473,63)"/>
<path d="M0 0 C1.32 0 2.64 0 4 0 C3.67 2.31 3.34 4.62 3 7 C-1.49656104 9.24828052 -5.07872966 9.16682272 -10 9 C-9.34 8.34 -8.68 7.68 -8 7 C-8.66 6.01 -9.32 5.02 -10 4 C-8.906875 4.0825 -7.81375 4.165 -6.6875 4.25 C-5.470625 4.1675 -4.25375 4.085 -3 4 C-1.29467677 2.05990478 -1.29467677 2.05990478 0 0 Z " fill="#595959" transform="translate(388,81)"/>
<path d="M0 0 C-1.875 3.875 -1.875 3.875 -3 5 C-3.15582303 6.34015221 -3.25044142 7.68758903 -3.31640625 9.03515625 C-3.35830078 9.84404297 -3.40019531 10.65292969 -3.44335938 11.48632812 C-3.48267578 12.33646484 -3.52199219 13.18660156 -3.5625 14.0625 C-3.60568359 14.91650391 -3.64886719 15.77050781 -3.69335938 16.65039062 C-3.79976702 18.76672037 -3.90041731 20.88333813 -4 23 C-5.65 23 -7.3 23 -9 23 C-8.01 22.67 -7.02 22.34 -6 22 C-6.02094727 21.44014404 -6.04189453 20.88028809 -6.06347656 20.3034668 C-6.14666202 17.76499414 -6.19866381 15.226808 -6.25 12.6875 C-6.28351563 11.80642578 -6.31703125 10.92535156 -6.3515625 10.01757812 C-6.45066069 3.50187213 -6.45066069 3.50187213 -4.109375 0.89453125 C-2 0 -2 0 0 0 Z " fill="#C0C0C0" transform="translate(290,67)"/>
<path d="M0 0 C1.32 0 2.64 0 4 0 C4 0.99 4 1.98 4 3 C5.32 2.01 6.64 1.02 8 0 C8.66 0.33 9.32 0.66 10 1 C9.67 1.33 9.34 1.66 9 2 C11.64 2.33 14.28 2.66 17 3 C16.67 3.66 16.34 4.32 16 5 C13.98177083 4.96744792 11.96354167 4.93489583 9.9453125 4.90234375 C7.91814596 4.87350758 7.91814596 4.87350758 6 6 C6 5.34 6 4.68 6 4 C5.01 4 4.02 4 3 4 C3 3.01 3 2.02 3 1 C2.34 1 1.68 1 1 1 C1 9.25 1 17.5 1 26 C0.67 26 0.34 26 0 26 C0 17.42 0 8.84 0 0 Z " fill="#777777" transform="translate(280,63)"/>
<path d="M0 0 C1.485 0.99 1.485 0.99 3 2 C3.43237305 4.33837891 3.43237305 4.33837891 3.51171875 7.2265625 C3.54716797 8.2578125 3.58261719 9.2890625 3.61914062 10.3515625 C3.64169922 11.43179688 3.66425781 12.51203125 3.6875 13.625 C3.72166016 14.71296875 3.75582031 15.8009375 3.79101562 16.921875 C3.87368334 19.61448063 3.94277087 22.30675291 4 25 C2.35 24.67 0.7 24.34 -1 24 C0.32 23.67 1.64 23.34 3 23 C2.34 22.01 1.68 21.02 1 20 C0.68115234 17.82348633 0.68115234 17.82348633 0.5859375 15.33203125 C0.54726562 14.43935547 0.50859375 13.54667969 0.46875 12.62695312 C0.4378125 11.69818359 0.406875 10.76941406 0.375 9.8125 C0.31699219 8.40194336 0.31699219 8.40194336 0.2578125 6.96289062 C0.16356813 4.6421229 0.07795975 2.32136252 0 0 Z " fill="#ABABAB" transform="translate(254,66)"/>
<path d="M0 0 C0.66 0.33 1.32 0.66 2 1 C1.42655063 3.86724686 1.1385485 4.8614515 -1 7 C-1.69748583 8.31747324 -2.36959957 9.64914193 -3 11 C-3.33 10.67 -3.66 10.34 -4 10 C-4.33 12.97 -4.66 15.94 -5 19 C-5.33 19 -5.66 19 -6 19 C-6.92017937 8.62242152 -6.92017937 8.62242152 -4.6640625 4.64453125 C-3.18840574 2.9644995 -1.70676104 1.44261945 0 0 Z " fill="#343434" transform="translate(376,63)"/>
<path d="M0 0 C0 0.99 0 1.98 0 3 C-1 4 -1 4 -3.72265625 4.09765625 C-5.37587891 4.08025391 -5.37587891 4.08025391 -7.0625 4.0625 C-8.71958984 4.04896484 -8.71958984 4.04896484 -10.41015625 4.03515625 C-11.26480469 4.02355469 -12.11945313 4.01195313 -13 4 C-13 7.3 -13 10.6 -13 14 C-13.66 14 -14.32 14 -15 14 C-15 9.71 -15 5.42 -15 1 C-14.34 1 -13.68 1 -13 1 C-13 1.66 -13 2.32 -13 3 C-11.20759337 2.88610125 -9.41605165 2.75852313 -7.625 2.625 C-6.62726563 2.55539063 -5.62953125 2.48578125 -4.6015625 2.4140625 C-1.84491121 2.23636036 -1.84491121 2.23636036 0 0 Z " fill="#B2B2B2" transform="translate(514,86)"/>
<path d="M0 0 C1.8125 0.25 1.8125 0.25 4 1 C4.474375 1.66 4.94875 2.32 5.4375 3 C6.87886306 5.25275456 6.87886306 5.25275456 9.6875 5.75 C10.450625 5.8325 11.21375 5.915 12 6 C12 6.66 12 7.32 12 8 C5.97463002 8.602537 5.97463002 8.602537 3.19921875 6.88671875 C1.74400545 5.65378147 0.36520843 4.33191067 -1 3 C-0.67 2.01 -0.34 1.02 0 0 Z " fill="#222222" transform="translate(554,81)"/>
<path d="M0 0 C-1 3 -1 3 -4.375 4.6875 C-8 6 -8 6 -11 6 C-11 5.34 -11 4.68 -11 4 C-11.66 3.67 -12.32 3.34 -13 3 C-3.82022472 -1.91011236 -3.82022472 -1.91011236 0 0 Z " fill="#505050" transform="translate(250,74)"/>
<path d="M0 0 C0.9075 0.12375 1.815 0.2475 2.75 0.375 C0.06158141 2.62745881 -1.89641875 4.25713958 -5.25 5.375 C-5.25 9.335 -5.25 13.295 -5.25 17.375 C-7.72849898 13.65725153 -7.89902802 10.68292349 -7.25 6.375 C-4.53301887 0.52304064 -4.53301887 0.52304064 0 0 Z " fill="#B4B4B4" transform="translate(590.25,65.625)"/>
<path d="M0 0 C0 0.33 0 0.66 0 1 C-1.65 1 -3.3 1 -5 1 C-5.66 2.32 -6.32 3.64 -7 5 C-7.66 5 -8.32 5 -9 5 C-9 5.66 -9 6.32 -9 7 C-4.71 7 -0.42 7 4 7 C4.33 6.01 4.66 5.02 5 4 C5 5.32 5 6.64 5 8 C0.05 8 -4.9 8 -10 8 C-9 3 -9 3 -7.8125 1.1875 C-5.20638339 -0.51995571 -3.0400645 -0.20267097 0 0 Z " fill="#B0B0B0" transform="translate(384,66)"/>
<path d="M0 0 C0.66 0.66 1.32 1.32 2 2 C-0.99879215 3.99919476 -3.59093411 4.91200025 -7 6 C-7.99 6.495 -7.99 6.495 -9 7 C-9 6.34 -9 5.68 -9 5 C-9.99 5 -10.98 5 -12 5 C-11.67 4.01 -11.34 3.02 -11 2 C-11 2.66 -11 3.32 -11 4 C-10.29875 3.34 -9.5975 2.68 -8.875 2 C-5.54170381 -0.31881474 -3.97357645 -0.52981019 0 0 Z " fill="#454545" transform="translate(510,62)"/>
<path d="M0 0 C1.98 0 3.96 0 6 0 C6 1.98 6 3.96 6 6 C4.02 6 2.04 6 0 6 C0 4.02 0 2.04 0 0 Z " fill="#555555" transform="translate(155,84)"/>
<path d="M0 0 C2.80500965 4.20751447 3.12829139 7.24985414 3.0625 12.25 C3.05347656 13.14203125 3.04445312 14.0340625 3.03515625 14.953125 C3.02355469 15.62859375 3.01195312 16.3040625 3 17 C1.51171875 15.94921875 1.51171875 15.94921875 0 14 C-0.29296875 10.64453125 -0.29296875 10.64453125 -0.1875 6.8125 C-0.16042969 5.54019531 -0.13335937 4.26789063 -0.10546875 2.95703125 C-0.07066406 1.98121094 -0.03585938 1.00539063 0 0 Z " fill="#1B1B1B" transform="translate(144,71)"/>
<path d="M0 0 C0.66 0.33 1.32 0.66 2 1 C1.42655063 3.86724686 1.1385485 4.8614515 -1 7 C-1.6425235 9.06874034 -1.6425235 9.06874034 -2 11 C-2.99 11 -3.98 11 -5 11 C-4.50769231 3.49230769 -4.50769231 3.49230769 -1.9375 1 C-1.298125 0.67 -0.65875 0.34 0 0 Z " fill="#313131" transform="translate(213,63)"/>
<path d="M0 0 C0 1.32 0 2.64 0 4 C-1.28926992 4.36279456 -2.58153272 4.71496698 -3.875 5.0625 C-4.95394531 5.35833984 -4.95394531 5.35833984 -6.0546875 5.66015625 C-8 6 -8 6 -10 5 C-9.67 3.68 -9.34 2.36 -9 1 C-9 1.66 -9 2.32 -9 3 C-8.62875 2.505 -8.2575 2.01 -7.875 1.5 C-5.25305607 -0.59755514 -3.26157528 -0.21743835 0 0 Z " fill="#2B2B2B" transform="translate(549,63)"/>
<path d="M0 0 C1.2065625 0.0309375 1.2065625 0.0309375 2.4375 0.0625 C2.4375 2.0425 2.4375 4.0225 2.4375 6.0625 C0.4575 6.0625 -1.5225 6.0625 -3.5625 6.0625 C-3.605221 4.39638095 -3.60313832 2.72867115 -3.5625 1.0625 C-2.5625 0.0625 -2.5625 0.0625 0 0 Z " fill="#505050" transform="translate(611.5625,83.9375)"/>
<path d="M0 0 C0.33 0.66 0.66 1.32 1 2 C0.67 2.99 0.34 3.98 0 5 C-0.09247381 6.47686111 -0.12999071 7.95775501 -0.125 9.4375 C-0.12757813 10.19933594 -0.13015625 10.96117188 -0.1328125 11.74609375 C-0.00276015 13.95315859 0.39143801 15.87969276 1 18 C0.34 18 -0.32 18 -1 18 C-1.66 18.66 -2.32 19.32 -3 20 C-3.33 18.35 -3.66 16.7 -4 15 C-3.34 15 -2.68 15 -2 15 C-2.02320313 14.16855469 -2.04640625 13.33710937 -2.0703125 12.48046875 C-2.08835937 11.39378906 -2.10640625 10.30710937 -2.125 9.1875 C-2.14820313 8.10855469 -2.17140625 7.02960938 -2.1953125 5.91796875 C-2 3 -2 3 0 0 Z " fill="#575757" transform="translate(336,63)"/>
<path d="M0 0 C0.33 0.99 0.66 1.98 1 3 C1.99 3 2.98 3 4 3 C3.52433594 4.24136719 3.52433594 4.24136719 3.0390625 5.5078125 C1.90524027 9.31847819 1.55838311 12.93226312 1.375 16.875 C1.33632813 17.56335938 1.29765625 18.25171875 1.2578125 18.9609375 C1.16451834 20.64023246 1.08121762 22.32007767 1 24 C0.67 24 0.34 24 0 24 C0 16.08 0 8.16 0 0 Z " fill="#070707" transform="translate(282,64)"/>
<path d="M0 0 C1.67542976 0.28604898 3.34385343 0.61781233 5 1 C5 2.65 5 4.3 5 6 C3.02 6 1.04 6 -1 6 C-1.042721 4.33388095 -1.04063832 2.66617115 -1 1 C-0.67 0.67 -0.34 0.34 0 0 Z " fill="#515151" transform="translate(309,84)"/>
<path d="M0 0 C0 0.33 0 0.66 0 1 C-1.65 1 -3.3 1 -5 1 C-5.66 2.32 -6.32 3.64 -7 5 C-7.66 5 -8.32 5 -9 5 C-9 5.66 -9 6.32 -9 7 C-4.71 7 -0.42 7 4 7 C4 7.33 4 7.66 4 8 C-0.62 8 -5.24 8 -10 8 C-9 3 -9 3 -7.8125 1.1875 C-5.20638339 -0.51995571 -3.0400645 -0.20267097 0 0 Z " fill="#B9B9B9" transform="translate(566,66)"/>
<path d="M0 0 C0.66 0.66 1.32 1.32 2 2 C1.625 4.125 1.625 4.125 1 6 C1 5.01 1 4.02 1 3 C0.34 3 -0.32 3 -1 3 C-1 4.65 -1 6.3 -1 8 C-1.66 7.67 -2.32 7.34 -3 7 C-3 5.68 -3 4.36 -3 3 C-5.31 2.34 -7.62 1.68 -10 1 C-10 0.67 -10 0.34 -10 0 C-3.42391304 -1.3451087 -3.42391304 -1.3451087 0 0 Z " fill="#2B2B2B" transform="translate(118,65)"/>
<path d="M0 0 C0.66 0 1.32 0 2 0 C1.67 4.95 1.34 9.9 1 15 C0.34 15 -0.32 15 -1 15 C-1.02685412 12.68756208 -1.04632841 10.3750373 -1.0625 8.0625 C-1.07410156 6.77472656 -1.08570312 5.48695312 -1.09765625 4.16015625 C-1 1 -1 1 0 0 Z " fill="#0A0A0A" transform="translate(129,68)"/>
<path d="M0 0 C0.99 0.33 1.98 0.66 3 1 C3 2.65 3 4.3 3 6 C-2.94 6 -8.88 6 -15 6 C-15 5.67 -15 5.34 -15 5 C-10.05 5 -5.1 5 0 5 C0 3.35 0 1.7 0 0 Z " fill="#090909" transform="translate(91,70)"/>
<path d="M0 0 C0.33 0.66 0.66 1.32 1 2 C0.34 2 -0.32 2 -1 2 C-1 4.64 -1 7.28 -1 10 C-1.99 10.33 -2.98 10.66 -4 11 C-3.67 8.36 -3.34 5.72 -3 3 C-5.31 2.34 -7.62 1.68 -10 1 C-10 0.67 -10 0.34 -10 0 C-3.34250344 -1.36176066 -3.34250344 -1.36176066 0 0 Z " fill="#303030" transform="translate(253,65)"/>
<path d="M0 0 C2.91517292 1.07401108 4.77810176 1.77810176 7 4 C7 5.32 7 6.64 7 8 C5.68 8 4.36 8 3 8 C0.82542733 5.12645755 0 3.63563409 0 0 Z " fill="#3C3C3C" transform="translate(355,56)"/>
<path d="M0 0 C0.66 0 1.32 0 2 0 C2.09765625 6.15234375 2.09765625 6.15234375 2 8 C1.67 8.33 1.34 8.66 1 9 C1.66 9.33 2.32 9.66 3 10 C2.67 11.32 2.34 12.64 2 14 C0.68 13.67 -0.64 13.34 -2 13 C-1.67 12.34 -1.34 11.68 -1 11 C-1.99 10.67 -2.98 10.34 -4 10 C-3.34 9.649375 -2.68 9.29875 -2 8.9375 C0.41103961 7.03442858 0.41103961 7.03442858 0.25 3.3125 C0.12625 1.6728125 0.12625 1.6728125 0 0 Z " fill="#646464" transform="translate(250,75)"/>
<path d="M0 0 C0.66 0 1.32 0 2 0 C1.95875 1.11375 1.9175 2.2275 1.875 3.375 C1.58878141 7.04366025 1.58878141 7.04366025 4 9 C5.31747324 9.69748583 6.64914193 10.36959957 8 11 C2.375 11.25 2.375 11.25 -1 9 C-1.4375 2.875 -1.4375 2.875 0 0 Z " fill="#0D0D0D" transform="translate(102,78)"/>
<path d="M0 0 C0.99 1.32 1.98 2.64 3 4 C2.70727539 6.00683594 2.70727539 6.00683594 2 8 C1.77609683 10.75317974 1.58606338 13.49305329 1.4375 16.25 C1.39431641 16.99507812 1.35113281 17.74015625 1.30664062 18.5078125 C1.20103275 20.338349 1.10005799 22.16915176 1 24 C0.67 24 0.34 24 0 24 C0 16.08 0 8.16 0 0 Z " fill="#030303" transform="translate(265,64)"/>
<path d="M0 0 C0.33 1.32 0.66 2.64 1 4 C1.66 4 2.32 4 3 4 C2.84660156 4.66386719 2.69320312 5.32773438 2.53515625 6.01171875 C1.89226979 9.60155922 1.64966009 13.17795419 1.4375 16.8125 C1.39431641 17.50537109 1.35113281 18.19824219 1.30664062 18.91210938 C1.20138547 20.60788686 1.10027137 22.30392052 1 24 C0.67 24 0.34 24 0 24 C0 16.08 0 8.16 0 0 Z " fill="#010101" transform="translate(538,64)"/>
<path d="M0 0 C0.99 0 1.98 0 3 0 C2.34 4.62 1.68 9.24 1 14 C-1 12 -1 12 -1.23046875 9.43359375 C-1.21628906 8.44488281 -1.20210937 7.45617187 -1.1875 6.4375 C-1.18105469 5.44621094 -1.17460938 4.45492187 -1.16796875 3.43359375 C-1 1 -1 1 0 0 Z " fill="#080808" transform="translate(582,68)"/>
<path d="M0 0 C-0.598125 0.268125 -1.19625 0.53625 -1.8125 0.8125 C-4.04327908 1.8893979 -4.04327908 1.8893979 -5.625 3.625 C-6.07875 4.07875 -6.5325 4.5325 -7 5 C-7.66 5 -8.32 5 -9 5 C-9.33 8.3 -9.66 11.6 -10 15 C-10.33 15 -10.66 15 -11 15 C-11.7742915 6.13866397 -11.7742915 6.13866397 -8.875 1.875 C-5.58169469 -0.27280781 -3.85483779 -0.44823695 0 0 Z " fill="#B6B6B6" transform="translate(510,66)"/>
<path d="M0 0 C-0.66 1.32 -1.32 2.64 -2 4 C-2.66 4 -3.32 4 -4 4 C-4 10.27 -4 16.54 -4 23 C-4.33 23 -4.66 23 -5 23 C-5.08706892 19.72933434 -5.14041241 16.45896635 -5.1875 13.1875 C-5.21263672 12.25873047 -5.23777344 11.32996094 -5.26367188 10.37304688 C-5.27333984 9.48037109 -5.28300781 8.58769531 -5.29296875 7.66796875 C-5.3086792 6.84578857 -5.32438965 6.0236084 -5.34057617 5.17651367 C-4.83270132 1.93084751 -3.39749724 0 0 0 Z " fill="#B7B7B7" transform="translate(452,67)"/>
<path d="M0 0 C4.29 0 8.58 0 13 0 C13 1.65 13 3.3 13 5 C12.34 4.34 11.68 3.68 11 3 C8.33757179 2.53709779 8.33757179 2.53709779 5.375 2.375 C3.87066406 2.26285156 3.87066406 2.26285156 2.3359375 2.1484375 C1.56507813 2.09945312 0.79421875 2.05046875 0 2 C0 1.34 0 0.68 0 0 Z " fill="#070707" transform="translate(348,71)"/>
<path d="M0 0 C2 0.8125 2 0.8125 5 2.8125 C1.68461603 3.94274453 -1.60382788 4.96345697 -5 5.8125 C-5.99 6.3075 -5.99 6.3075 -7 6.8125 C-3.78697001 -0.35502844 -3.78697001 -0.35502844 0 0 Z " fill="#323232" transform="translate(560,63.1875)"/>
<path d="M0 0 C0.99 0.99 1.98 1.98 3 3 C2.67 3.66 2.34 4.32 2 5 C1.34 5 0.68 5 0 5 C0 4.34 0 3.68 0 3 C-0.66 3 -1.32 3 -2 3 C-2 7.29 -2 11.58 -2 16 C-2.99 15.67 -3.98 15.34 -5 15 C-4.34 15 -3.68 15 -3 15 C-3.03480469 14.08476563 -3.06960938 13.16953125 -3.10546875 12.2265625 C-3.13253906 11.03804687 -3.15960938 9.84953125 -3.1875 8.625 C-3.22230469 7.44164063 -3.25710938 6.25828125 -3.29296875 5.0390625 C-3.19628906 4.03617187 -3.09960938 3.03328125 -3 2 C-2.01 1.34 -1.02 0.68 0 0 Z " fill="#2D2D2D" transform="translate(501,84)"/>
<path d="M0 0 C0.33 0 0.66 0 1 0 C1.06058594 1.26457031 1.12117187 2.52914062 1.18359375 3.83203125 C1.26800904 5.49219871 1.35265655 7.15235437 1.4375 8.8125 C1.47681641 9.64587891 1.51613281 10.47925781 1.55664062 11.33789062 C1.59853516 12.14033203 1.64042969 12.94277344 1.68359375 13.76953125 C1.72025146 14.50792236 1.75690918 15.24631348 1.79467773 16.00708008 C1.94842141 18.207495 1.94842141 18.207495 3 21 C1.68 21 0.36 21 -1 21 C-0.67 14.07 -0.34 7.14 0 0 Z " fill="#1E1E1E" transform="translate(254,68)"/>
<path d="M0 0 C0.90105469 0.02707031 1.80210937 0.05414063 2.73046875 0.08203125 C3.76107422 0.13423828 3.76107422 0.13423828 4.8125 0.1875 C4.8125 0.5175 4.8125 0.8475 4.8125 1.1875 C1.8425 1.1875 -1.1275 1.1875 -4.1875 1.1875 C-3.8575 2.5075 -3.5275 3.8275 -3.1875 5.1875 C-4.8375 5.5175 -6.4875 5.8475 -8.1875 6.1875 C-8.1875 3.1875 -8.1875 3.1875 -7.01171875 1.51171875 C-4.56536496 -0.26411409 -2.9895229 -0.11647492 0 0 Z " fill="#3E3E3E" transform="translate(590.1875,62.8125)"/>
<path d="M0 0 C0.66 0 1.32 0 2 0 C2 1.65 2 3.3 2 5 C-3.94 5 -9.88 5 -16 5 C-16 4.67 -16 4.34 -16 4 C-11.05 3.67 -6.1 3.34 -1 3 C-0.67 2.01 -0.34 1.02 0 0 Z " fill="#070707" transform="translate(572,71)"/>
<path d="M0 0 C0.66 1.32 1.32 2.64 2 4 C2.66 3.01 3.32 2.02 4 1 C4.125 3.875 4.125 3.875 4 7 C3.34 7.66 2.68 8.32 2 9 C0.33333333 9 -1.33333333 9 -3 9 C-2.34 8.01 -1.68 7.02 -1 6 C-0.60986284 4.0103005 -0.26797351 2.00980131 0 0 Z " fill="#2A2A2A" transform="translate(60,60)"/>
<path d="M0 0 C0.12375 0.639375 0.2475 1.27875 0.375 1.9375 C0.684375 2.9584375 0.684375 2.9584375 1 4 C1.66 4.33 2.32 4.66 3 5 C2.67 5.99 2.34 6.98 2 8 C2 7.34 2 6.68 2 6 C1.2575 6.37125 0.515 6.7425 -0.25 7.125 C-3 8 -3 8 -5.3125 7.125 C-5.869375 6.75375 -6.42625 6.3825 -7 6 C-6.401875 5.938125 -5.80375 5.87625 -5.1875 5.8125 C-2.12856542 4.6763243 -1.44958901 2.82669858 0 0 Z " fill="#3A3A3A" transform="translate(596,81)"/>
<path d="M0 0 C0.86625 0.61875 1.7325 1.2375 2.625 1.875 C5.75628186 3.84654784 8.46384469 4.98966991 12 6 C12 6.33 12 6.66 12 7 C9.36 7 6.72 7 4 7 C3.34 5.68 2.68 4.36 2 3 C1.34 3 0.68 3 0 3 C0 2.01 0 1.02 0 0 Z " fill="#141414" transform="translate(373,82)"/>
<path d="M0 0 C0.66 0 1.32 0 2 0 C2.33 3.96 2.66 7.92 3 12 C2.01 12 1.02 12 0 12 C0 8.04 0 4.08 0 0 Z " fill="#070707" transform="translate(61,77)"/>
<path d="M0 0 C1.98 0.66 3.96 1.32 6 2 C5.67 2.99 5.34 3.98 5 5 C3.51882199 4.71872579 2.04006751 4.42466268 0.5625 4.125 C-0.26121094 3.96257812 -1.08492188 3.80015625 -1.93359375 3.6328125 C-2.61550781 3.42398438 -3.29742187 3.21515625 -4 3 C-4.33 2.34 -4.66 1.68 -5 1 C-2.525 1.495 -2.525 1.495 0 2 C0 1.34 0 0.68 0 0 Z " fill="#4A4A4A" transform="translate(478,74)"/>
<path d="M0 0 C0.66 0 1.32 0 2 0 C2.07654536 4.51617599 2.10228696 8.59085217 1 13 C0.67 13 0.34 13 0 13 C0 11.02 0 9.04 0 7 C-0.99 6.67 -1.98 6.34 -3 6 C-2.01 5.67 -1.02 5.34 0 5 C0 3.35 0 1.7 0 0 Z " fill="#070707" transform="translate(117,68)"/>
<path d="M0 0 C0 3.96 0 7.92 0 12 C-1.83836919 8.32326162 -2.93651813 4.95007553 -4 1 C-2 0 -2 0 0 0 Z " fill="#020202" transform="translate(147,66)"/>
<path d="M0 0 C2.31 0 4.62 0 7 0 C7 0.99 7 1.98 7 3 C4.69 3.33 2.38 3.66 0 4 C0 2.68 0 1.36 0 0 Z " fill="#181818" transform="translate(402,63)"/>
<path d="M0 0 C0.7734375 0.433125 0.7734375 0.433125 1.5625 0.875 C4.62356725 2.28780027 7.74944918 3.1248517 11 4 C11 4.66 11 5.32 11 6 C5.375 6.25 5.375 6.25 2 4 C2 3.34 2 2.68 2 2 C1.34 2 0.68 2 0 2 C0 1.34 0 0.68 0 0 Z " fill="#141414" transform="translate(210,83)"/>
<path d="M0 0 C0.66 0 1.32 0 2 0 C2 0.66 2 1.32 2 2 C2.66 2.33 3.32 2.66 4 3 C4 4.98 4 6.96 4 9 C3.67 8.01 3.34 7.02 3 6 C2.34 6 1.68 6 1 6 C1 5.34 1 4.68 1 4 C-0.32 4.33 -1.64 4.66 -3 5 C-1.625 2.5 -1.625 2.5 0 0 Z " fill="#646464" transform="translate(356,80)"/>
<path d="M0 0 C2.475 0.495 2.475 0.495 5 1 C5.33 2.65 5.66 4.3 6 6 C5.01 6.495 5.01 6.495 4 7 C4 6.01 4 5.02 4 4 C3.01 3.67 2.02 3.34 1 3 C0.67 2.01 0.34 1.02 0 0 Z " fill="#151515" transform="translate(482,77)"/>
<path d="M0 0 C1.32 1.32 2.64 2.64 4 4 C3.01 4.495 3.01 4.495 2 5 C1.27840576 6.64363134 0.60648579 8.31050386 0 10 C-0.33 10 -0.66 10 -1 10 C-1.02689216 8.52093108 -1.04634621 7.04172517 -1.0625 5.5625 C-1.07410156 4.73878906 -1.08570313 3.91507812 -1.09765625 3.06640625 C-1 1 -1 1 0 0 Z " fill="#080808" transform="translate(372,72)"/>
<path d="M0 0 C0.99 0 1.98 0 3 0 C2.3125 2.4375 2.3125 2.4375 1 5 C-1.625 5.8125 -1.625 5.8125 -4 6 C-2.1875 3 -2.1875 3 0 0 Z " fill="#272727" transform="translate(226,82)"/>
<path d="M0 0 C0 1.32 0 2.64 0 4 C-1.32 4 -2.64 4 -4 4 C-4.66 2.68 -5.32 1.36 -6 0 C-3.50907189 -1.24546405 -2.58919267 -0.7767578 0 0 Z " fill="#2F2F2F" transform="translate(488,66)"/>
<path d="M0 0 C1.32 0.33 2.64 0.66 4 1 C3.34 3.31 2.68 5.62 2 8 C1.34 8 0.68 8 0 8 C0 5.36 0 2.72 0 0 Z " fill="#0B0B0B" transform="translate(208,74)"/>
<path d="M0 0 C1.32 0 2.64 0 4 0 C4 1.65 4 3.3 4 5 C2.68 5 1.36 5 0 5 C0 3.35 0 1.7 0 0 Z " fill="#434343" transform="translate(524,53)"/>
<path d="M0 0 C0.66 0 1.32 0 2 0 C1.67 1.65 1.34 3.3 1 5 C-0.65 5.33 -2.3 5.66 -4 6 C-2.7260411 3.96166576 -1.38938077 1.96147874 0 0 Z " fill="#1C1C1C" transform="translate(571,82)"/>
<path d="M0 0 C0.99 0.33 1.98 0.66 3 1 C2.34 2.65 1.68 4.3 1 6 C0.67 5.34 0.34 4.68 0 4 C-0.99 4.33 -1.98 4.66 -3 5 C-1.125 1.125 -1.125 1.125 0 0 Z " fill="#2D2D2D" transform="translate(131,64)"/>
<path d="M0 0 C0.33 0 0.66 0 1 0 C1.33 3.63 1.66 7.26 2 11 C0.68 10.34 -0.64 9.68 -2 9 C-1.67 8.67 -1.34 8.34 -1 8 C-0.76924918 6.65252916 -0.58846937 5.29622435 -0.4375 3.9375 C-0.293125 2.638125 -0.14875 1.33875 0 0 Z " fill="#0E0E0E" transform="translate(252,75)"/>
</svg>
